<?xml version="1.0" encoding="utf-8"?>
<!-- Generator: Adobe Illustrator 24.1.2, SVG Export Plug-In . SVG Version: 6.00 Build 0)  -->
<svg version="1.1" id="Слой_1" xmlns="http://www.w3.org/2000/svg" xmlns:xlink="http://www.w3.org/1999/xlink" x="0px" y="0px"
	 viewBox="0 0 32 32" style="enable-background:new 0 0 32 32;" xml:space="preserve">
<style type="text/css">
	.st0{fill:#FFFFFF;}
	.st1{fill:#005FEC;}
</style>
<g id="XMLID_1_">
	<g>
		<polygon class="st0" points="25.5,7.4 25.5,25.1 20.8,25.1 20.8,14.9 20.6,14.9 16.7,25 13.8,25 9.9,14.8 9.7,14.8 9.7,25.1 
			5,25.1 5,7.4 11,7.4 15.1,17.5 15.3,17.5 19.5,7.4 		"/>
		<path class="st1" d="M15.2,9.1c1.7,0,3.1-1.4,3.1-3c0-1.7-1.4-3-3.1-3c-1.7,0-3.1,1.4-3.1,3C12.2,7.8,13.6,9.1,15.2,9.1z
			 M19.5,7.4l-4.1,10h-0.2L11,7.4H5v17.7h4.7V14.8h0.1L13.8,25h2.8l4-10.1h0.1v10.2h4.7V7.4H19.5z M32,4.6v22.9c0,2.5-2,4.6-4.6,4.6
			H4.6C2,32,0,30,0,27.4V4.6C0,2,2,0,4.6,0h22.9C30,0,32,2,32,4.6z"/>
	</g>
	<g>
	</g>
</g>
</svg>
