<?xml version="1.0" encoding="utf-8"?>
<!-- Generator: Adobe Illustrator 24.1.2, SVG Export Plug-In . SVG Version: 6.00 Build 0)  -->
<svg version="1.1" id="Слой_1" xmlns="http://www.w3.org/2000/svg" xmlns:xlink="http://www.w3.org/1999/xlink" x="0px" y="0px"
	 viewBox="0 0 100 14" style="enable-background:new 0 0 100 14;" xml:space="preserve">
<style type="text/css">
	.st0{opacity:0.8;}
	.st1{fill-rule:evenodd;clip-rule:evenodd;fill:#FF523D;}
</style>
<g class="st0">
	<path class="st1" d="M14.7,1.3c-1.8-1.7-4.6-1.7-6.4,0C8.2,1.4,8.1,1.5,8,1.6C7.9,1.5,7.8,1.4,7.7,1.3C6-0.4,3.1-0.4,1.3,1.3
		c-1.8,1.7-1.8,4.6,0,6.3l6.4,6.3C7.8,14,7.9,14,8,14c0.1,0,0.2,0,0.2-0.1l6.4-6.3C16.4,5.9,16.4,3,14.7,1.3z"/>
</g>
<g class="st0">
	<path class="st1" d="M35.7,1.3c-1.8-1.7-4.6-1.7-6.4,0c-0.1,0.1-0.2,0.2-0.3,0.3c-0.1-0.1-0.2-0.2-0.3-0.3c-1.8-1.7-4.6-1.7-6.4,0
		c-1.8,1.7-1.8,4.6,0,6.3l6.4,6.3C28.8,14,28.9,14,29,14c0.1,0,0.2,0,0.2-0.1l6.4-6.3C37.4,5.9,37.4,3,35.7,1.3z"/>
</g>
<g class="st0">
	<path class="st1" d="M56.7,1.3c-1.8-1.7-4.6-1.7-6.4,0c-0.1,0.1-0.2,0.2-0.3,0.3c-0.1-0.1-0.2-0.2-0.3-0.3c-1.8-1.7-4.6-1.7-6.4,0
		c-1.8,1.7-1.8,4.6,0,6.3l6.4,6.3C49.8,14,49.9,14,50,14c0.1,0,0.2,0,0.2-0.1l6.4-6.3C58.4,5.9,58.4,3,56.7,1.3z"/>
</g>
<g class="st0">
	<path class="st1" d="M77.7,1.3c-1.8-1.7-4.6-1.7-6.4,0c-0.1,0.1-0.2,0.2-0.3,0.3c-0.1-0.1-0.2-0.2-0.3-0.3c-1.8-1.7-4.6-1.7-6.4,0
		c-1.8,1.7-1.8,4.6,0,6.3l6.4,6.3C70.8,14,70.9,14,71,14c0.1,0,0.2,0,0.2-0.1l6.4-6.3C79.4,5.9,79.4,3,77.7,1.3z"/>
</g>
<g class="st0">
	<path class="st1" d="M98.7,1.3c-1.8-1.7-4.6-1.7-6.4,0c-0.1,0.1-0.2,0.2-0.3,0.3c-0.1-0.1-0.2-0.2-0.3-0.3c-1.8-1.7-4.6-1.7-6.4,0
		c-1.8,1.7-1.8,4.6,0,6.3l6.4,6.3C91.8,14,91.9,14,92,14s0.2,0,0.2-0.1l6.4-6.3C100.4,5.9,100.4,3,98.7,1.3z"/>
</g>
</svg>
